<svg width="16" height="16" viewBox="0 0 16 16" fill="none" xmlns="http://www.w3.org/2000/svg">
<g clip-path="url(#clip0_1849_6487)">
<mask id="mask0_1849_6487" style="mask-type:luminance" maskUnits="userSpaceOnUse" x="-1" y="1" width="17" height="14">
<path d="M15.998 1.80273H-0.00195312V14.1971H15.998V1.80273Z" fill="white"/>
</mask>
<g mask="url(#mask0_1849_6487)">
<path d="M13.5427 2.90743C12.5229 2.43951 11.4294 2.09476 10.286 1.89731C10.2652 1.8935 10.2444 1.90303 10.2336 1.92207C10.093 2.17222 9.9372 2.49855 9.82811 2.75504C8.59832 2.57093 7.37484 2.57093 6.17026 2.75504C6.06115 2.49285 5.8997 2.17222 5.75843 1.92207C5.7477 1.90366 5.7269 1.89414 5.70608 1.89731C4.56332 2.09413 3.46975 2.43887 2.44934 2.90743C2.4405 2.91123 2.43293 2.91759 2.42791 2.92584C0.353641 6.02474 -0.214587 9.04748 0.064167 12.0327C0.0654283 12.0473 0.0736268 12.0613 0.0849789 12.0702C1.45352 13.0752 2.77918 13.6854 4.08023 14.0898C4.10106 14.0961 4.12312 14.0885 4.13637 14.0714C4.44413 13.6511 4.71847 13.2079 4.9537 12.7419C4.96758 12.7146 4.95433 12.6822 4.92596 12.6714C4.4908 12.5064 4.07645 12.3051 3.67787 12.0766C3.64634 12.0581 3.64382 12.013 3.67282 11.9915C3.75669 11.9286 3.84059 11.8632 3.92068 11.7972C3.93517 11.7851 3.95537 11.7826 3.9724 11.7902C6.5909 12.9857 9.42574 12.9857 12.0133 11.7902C12.0304 11.782 12.0506 11.7845 12.0657 11.7966C12.1458 11.8626 12.2297 11.9286 12.3142 11.9915C12.3432 12.013 12.3413 12.0581 12.3098 12.0766C11.9112 12.3095 11.4968 12.5064 11.0611 12.6708C11.0327 12.6816 11.0201 12.7146 11.0339 12.7419C11.2742 13.2073 11.5486 13.6504 11.8506 14.0707C11.8633 14.0885 11.886 14.0961 11.9068 14.0898C13.2141 13.6854 14.5398 13.0752 15.9083 12.0702C15.9203 12.0613 15.9279 12.048 15.9292 12.0334C16.2628 8.58209 15.3704 5.58414 13.5635 2.92647C13.5591 2.91759 13.5516 2.91123 13.5427 2.90743ZM5.34473 10.215C4.55638 10.215 3.9068 9.49127 3.9068 8.60241C3.9068 7.71356 4.54378 6.98979 5.34473 6.98979C6.15196 6.98979 6.79525 7.71991 6.78263 8.60241C6.78263 9.49127 6.14565 10.215 5.34473 10.215ZM10.6612 10.215C9.87289 10.215 9.22331 9.49127 9.22331 8.60241C9.22331 7.71356 9.86027 6.98979 10.6612 6.98979C11.4685 6.98979 12.1117 7.71991 12.0991 8.60241C12.0991 9.49127 11.4685 10.215 10.6612 10.215Z" fill="#0C0D0D"/>
</g>
</g>
<defs>
<clipPath id="clip0_1849_6487">
<rect width="16" height="16" fill="white"/>
</clipPath>
</defs>
</svg>
